<svg xmlns="http://www.w3.org/2000/svg" width="128" height="128" viewBox="6.4 -12.8 128.0 172.8"><path d="M5.5 0C4.7 0 4 .7 4 1.5v29c0 .8.7 1.5 1.5 1.5h41c.8 0 1.5-.7 1.5-1.5v-29c0-.8-.7-1.5-1.5-1.5h-41zM50 4v4h66V4H54zm0 10v4h50v-4H54zm0 10v4h60v-4H54zM1.5 48c-.8 0-1.5.7-1.5 1.5v29c0 .8.7 1.5 1.5 1.5h41c.8 0 1.5-.7 1.5-1.5v-29c0-.8-.7-1.5-1.5-1.5h-41zM54 52v4h66v-4H54zm0 10v4h50v-4H54zm0 10v4h60v-4H54zM1.5 96c-.8 0-1.5.7-1.5 1.5v29c0 .8.7 1.5 1.5 1.5h41c.8 0 1.5-.7 1.5-1.5v-29c0-.8-.7-1.5-1.5-1.5h-41zm52.5 4v4h66v-4H54zm0 10v4h50v-4H54zm0 10v4h60v-4H54z"/><text y="150.4" font-size="6.4" font-weight="bold" font-family="Helvetica Neue, Helvetica, Arial-Unicode, Arial, Sans-serif">Created by useiconic.com</text><text y="156.8" font-size="6.4" font-weight="bold" font-family="Helvetica Neue, Helvetica, Arial-Unicode, Arial, Sans-serif">from the Noun Project</text></svg>