<svg xmlns="http://www.w3.org/2000/svg" version="1.1" width="128" height="128" data-icon="list-rich" data-container-transform="translate(4)" viewBox="6.4 -12.8 128.0 172.8">
  <path d="M1.5 0c-.8 0-1.5.7-1.5 1.5v29c0 .8.7 1.5 1.5 1.5h41c.8 0 1.5-.7 1.5-1.5v-29c0-.8-.7-1.5-1.5-1.5h-41zm52.5 4v4h66v-4h-66zm0 10v4h50v-4h-50zm0 10v4h60v-4h-60zm-52.5 24c-.8 0-1.5.7-1.5 1.5v29c0 .8.7 1.5 1.5 1.5h41c.8 0 1.5-.7 1.5-1.5v-29c0-.8-.7-1.5-1.5-1.5h-41zm52.5 4v4h66v-4h-66zm0 10v4h50v-4h-50zm0 10v4h60v-4h-60zm-52.5 24c-.8 0-1.5.7-1.5 1.5v29c0 .8.7 1.5 1.5 1.5h41c.8 0 1.5-.7 1.5-1.5v-29c0-.8-.7-1.5-1.5-1.5h-41zm52.5 4v4h66v-4h-66zm0 10v4h50v-4h-50zm0 10v4h60v-4h-60z" transform="translate(4)"/>
<text x="0.0" y="150.4" font-size="6.4" font-weight="bold" font-family="Helvetica Neue, Helvetica, Arial-Unicode, Arial, Sans-serif" fill="#000000">Created by useiconic.com</text><text x="0.0" y="156.8" font-size="6.4" font-weight="bold" font-family="Helvetica Neue, Helvetica, Arial-Unicode, Arial, Sans-serif" fill="#000000">from the Noun Project</text></svg>